<?xml version="1.0" encoding="UTF-8"?>
<svg width="86px" height="21px" viewBox="0 0 86 21" version="1.1" xmlns="http://www.w3.org/2000/svg" xmlns:xlink="http://www.w3.org/1999/xlink">
    <!-- Generator: Sketch 60.1 (88133) - https://sketch.com -->
    <title>Untitled 5</title>
    <desc>Created with Sketch.</desc>
    <defs>
        <polygon id="path-1" points="0 19.4196063 85.7084062 19.4196063 85.7084062 -0.00026875 0 -0.00026875"></polygon>
    </defs>
    <g id="Page-1" stroke="none" stroke-width="1" fill="none" fill-rule="evenodd">
        <g id="Group-15">
            <path d="M9.52248437,11.0010125 C9.52248437,12.3165437 8.45554687,13.3834812 7.14001562,13.3834812 C5.82314062,13.3834812 4.75620312,12.3165437 4.75620312,11.0010125 C4.75620312,9.68548125 5.82314062,8.61854375 7.14001562,8.61854375 C8.45554687,8.61854375 9.52248437,9.68548125 9.52248437,11.0010125" id="Fill-1" fill="#FF7A59"></path>
            <path d="M7.13947813,18.1410281 C3.20229063,18.1410281 0.000134375,14.9375281 0.000134375,11.0016844 C0.000134375,9.09355937 0.743228125,7.30099688 2.09100938,5.95321563 L3.20094688,7.06180938 C2.14879063,8.11396563 1.56963437,9.51280937 1.56963437,11.0016844 C1.56963437,14.0734969 4.06766563,16.5715281 7.13947813,16.5715281 C10.2112906,16.5715281 12.7106656,14.0734969 12.7106656,11.0016844 C12.7106656,9.51280937 12.1301656,8.11396563 11.0780094,7.06180938 L12.1879469,5.95187188 C13.5357281,7.30099688 14.2788219,9.09355937 14.2788219,11.0016844 C14.2788219,14.9375281 11.0766656,18.1410281 7.13947813,18.1410281" id="Fill-3" fill="#FF7A59"></path>
            <path d="M15.5582063,19.4192031 L14.4482688,18.3106094 C16.4007375,16.3581406 17.4757375,13.7620156 17.4757375,11.0006094 C17.4757375,8.24054688 16.4007375,5.64442188 14.4482688,3.69195313 L15.5582063,2.58201562 C17.8063,4.83145313 19.0452375,7.82129688 19.0452375,11.0006094 C19.0452375,14.1812656 17.8063,17.1711094 15.5582063,19.4192031" id="Fill-5" fill="#FF7A59"></path>
            <path d="M34.042025,8.64367187 C33.3083375,7.68154688 32.0922437,6.94651562 30.6490563,6.94651562 C28.344525,6.94651562 26.8260875,8.79551563 26.8260875,10.8716094 C26.8260875,12.9987656 28.4708375,14.7967031 30.7753687,14.7967031 C31.9914625,14.7967031 33.2317437,14.1879844 34.042025,13.1008906 L34.042025,8.64367187 Z M34.1186187,15.7332969 C33.1564938,16.5946406 31.86515,17.0757031 30.44615,17.0757031 C29.3832438,17.0757031 28.269275,16.7720156 27.4589937,16.2909531 C25.6610563,15.2267031 24.420775,13.2513906 24.420775,10.8716094 C24.420775,8.49182812 25.6865875,6.49098437 27.484525,5.42807812 C28.2948062,4.94701562 29.2824625,4.66885937 30.3964312,4.66885937 C31.7388375,4.66885937 33.0301812,5.07332812 34.1186187,6.01126562 L34.1186187,4.92148437 L36.4486812,4.92148437 L36.4486812,16.8217344 L34.1186187,16.8217344 L34.1186187,15.7332969 Z" id="Fill-7" fill="#1B2A4E"></path>
            <mask id="mask-2" fill="white">
                <use xlink:href="#path-1"></use>
            </mask>
            <g id="Clip-10"></g>
            <polygon id="Fill-9" fill="#1B2A4E" mask="url(#mask-2)" points="39.99 16.8221375 42.3953125 16.8221375 42.3953125 -0.00026875 39.99 -0.00026875"></polygon>
            <path d="M48.472825,9.35290313 L54.955075,9.35290313 C54.600325,7.83312187 53.2337312,6.77021562 51.816075,6.77021562 C50.2707625,6.77021562 48.8786375,7.80759062 48.472825,9.35290313 L48.472825,9.35290313 Z M48.2712625,11.3779344 C48.397575,13.3787781 50.042325,14.9738094 52.1197625,14.9738094 C53.8921688,14.9738094 54.8542938,14.1124656 55.5369187,13.3532469 L57.1077625,14.8474969 C56.2208875,15.9869969 54.5237312,17.0754344 52.0942312,17.0754344 C48.6246687,17.0754344 45.9412,14.4416844 45.9412,10.8713406 C45.9412,7.30234063 48.3720437,4.66859062 51.7394812,4.66859062 C55.0572,4.66859062 57.4625125,7.35205937 57.4625125,10.8713406 C57.4625125,10.9734656 57.4625125,11.1508406 57.4356375,11.3779344 L48.2712625,11.3779344 Z" id="Fill-11" fill="#1B2A4E" mask="url(#mask-2)"></path>
            <path d="M67.5616,7.04850625 C67.2834438,6.9719125 67.0052875,6.94638125 66.6250063,6.94638125 C65.384725,6.94638125 64.06785,7.807725 63.4094125,8.947225 L63.4094125,16.8216 L61.0041,16.8216 L61.0041,4.92135 L63.3341625,4.92135 L63.3341625,6.2892875 C63.9160063,5.47900625 65.1562875,4.668725 66.9045063,4.668725 C67.1571313,4.668725 67.5616,4.69425625 67.8411,4.743975 L67.5616,7.04850625 Z" id="Fill-12" fill="#1B2A4E" mask="url(#mask-2)"></path>
            <path d="M79.4427687,16.8222719 C78.9872375,16.9741156 78.2522063,17.0748969 77.5682375,17.0748969 C76.0753313,17.0748969 74.9613625,16.5441156 74.2021438,15.6827719 C73.4926437,14.8980219 73.2400188,13.8095844 73.2400188,12.5182406 L73.2400188,7.07336563 L70.2004563,7.07336563 L70.2004563,4.92202188 L73.2400188,4.92202188 L73.2400188,1.62983437 L75.6453312,1.62983437 L75.6453312,4.92202188 L79.4427687,4.92202188 L79.4427687,7.07336563 L75.6453312,7.07336563 L75.6453312,12.6445531 C75.6453312,13.2774594 75.69505,13.8095844 75.9987375,14.1629906 C76.3293,14.5688031 77.011925,14.7958969 77.6448312,14.7958969 C77.9995813,14.7958969 78.6069562,14.7461781 78.96305,14.6453969 L79.4427687,16.8222719 Z" id="Fill-13" fill="#1B2A4E" mask="url(#mask-2)"></path>
            <path d="M82.9886563,16.8221375 L85.3939687,16.8221375 L85.3939687,4.9218875 L82.9886563,4.9218875 L82.9886563,16.8221375 Z M84.1792188,0.1032 C85.0284688,0.1032 85.7084062,0.7831375 85.7084062,1.6323875 C85.7084062,2.48298125 85.0284688,3.1373875 84.1792188,3.1373875 C83.3299688,3.1373875 82.672875,2.48298125 82.672875,1.6323875 C82.672875,0.7831375 83.3299688,0.1032 84.1792188,0.1032 L84.1792188,0.1032 Z" id="Fill-14" fill="#1B2A4E" mask="url(#mask-2)"></path>
        </g>
    </g>
</svg>