<?xml version="1.0" encoding="utf-8"?>
<!-- Generator: Adobe Illustrator 23.0.2, SVG Export Plug-In . SVG Version: 6.00 Build 0)  -->
<svg version="1.1" id="Calque_1" xmlns="http://www.w3.org/2000/svg" xmlns:xlink="http://www.w3.org/1999/xlink" x="0px" y="0px"
	 viewBox="0 0 121.9 38.8" style="enable-background:new 0 0 121.9 38.8;" xml:space="preserve">
<style type="text/css">
	.st0{fill:url(#SVGID_1_);}
	.st1{fill:url(#SVGID_2_);}
	.st2{fill:url(#SVGID_3_);}
	.st3{fill:url(#SVGID_4_);}
	.st4{fill:url(#SVGID_5_);}
	.st5{fill:url(#SVGID_6_);}
	.st6{fill:#20133A;}
</style>
<g>
	<g>
		<g>
			<linearGradient id="SVGID_1_" gradientUnits="userSpaceOnUse" x1="12.6239" y1="19.4343" x2="24.42" y2="19.4343">
				<stop  offset="0" style="stop-color:#3A8EE6"/>
				<stop  offset="0.24" style="stop-color:#5C79F0"/>
				<stop  offset="0.63" style="stop-color:#9059FF"/>
				<stop  offset="1" style="stop-color:#C139E6"/>
			</linearGradient>
			<circle class="st0" cx="18.5" cy="19.4" r="5.9"/>
		</g>
		<g>
			
				<radialGradient id="SVGID_2_" cx="17.3503" cy="19.4344" r="5.9964" gradientTransform="matrix(0.9836 0 0 0.9836 1.456 0.3185)" gradientUnits="userSpaceOnUse">
				<stop  offset="0" style="stop-color:#9059FF;stop-opacity:0"/>
				<stop  offset="1" style="stop-color:#6E008B;stop-opacity:0.5"/>
			</radialGradient>
			<circle class="st1" cx="18.5" cy="19.4" r="5.9"/>
		</g>
		<g>
			<linearGradient id="SVGID_3_" gradientUnits="userSpaceOnUse" x1="0.8187" y1="22.2594" x2="35.0407" y2="22.2594">
				<stop  offset="0" style="stop-color:#FD1572"/>
				<stop  offset="0.1231" style="stop-color:#FD1B73"/>
				<stop  offset="0.2826" style="stop-color:#FD2B74"/>
				<stop  offset="0.4621" style="stop-color:#FD4676"/>
				<stop  offset="0.6563" style="stop-color:#FC6B7A"/>
				<stop  offset="0.86" style="stop-color:#FC9A7E"/>
				<stop  offset="1" style="stop-color:#FCBF81"/>
			</linearGradient>
			<path class="st2" d="M17.3,36.5C8.2,36.2,0.9,28.7,0.8,19.6c0-4.1,1.4-8,3.9-11.1c0.6-0.7,1.6-0.7,2.2-0.1L9,10.5
				c0.5,0.5,0.6,1.4,0.1,2c-1.7,2.1-2.5,4.8-2.4,7.6c0.3,5.7,4.9,10.2,10.6,10.5c6.4,0.3,11.8-4.8,11.8-11.2c0-2.5-0.8-4.9-2.4-6.9
				c-0.5-0.6-0.4-1.4,0.1-2L29,8.5c0.6-0.6,1.6-0.6,2.2,0.1c2.5,3.1,3.9,6.8,3.9,10.9C35,29.1,27,36.9,17.3,36.5z"/>
		</g>
		<g>
			<linearGradient id="SVGID_4_" gradientUnits="userSpaceOnUse" x1="1.411" y1="22.2594" x2="35.6329" y2="22.2594">
				<stop  offset="0" style="stop-color:#FF7A59"/>
				<stop  offset="0.3233" style="stop-color:#FF7E5B"/>
				<stop  offset="0.6298" style="stop-color:#FE8963"/>
				<stop  offset="0.9287" style="stop-color:#FD9C6E"/>
				<stop  offset="1" style="stop-color:#FDA272"/>
			</linearGradient>
			<path class="st3" d="M17.9,36.5C8.8,36.2,1.5,28.7,1.4,19.6c0-4.1,1.4-8,3.9-11.1c0.6-0.7,1.6-0.7,2.2-0.1l2.1,2.1
				c0.5,0.5,0.6,1.4,0.1,2c-1.7,2.1-2.5,4.8-2.4,7.6c0.3,5.7,4.9,10.2,10.6,10.5c6.4,0.3,11.8-4.8,11.8-11.2c0-2.5-0.8-4.9-2.4-6.9
				c-0.5-0.6-0.4-1.4,0.1-2l2.1-2.1c0.6-0.6,1.6-0.6,2.2,0.1c2.5,3.1,3.9,6.8,3.9,10.9C35.6,29.1,27.6,36.9,17.9,36.5z"/>
		</g>
		<g>
			<linearGradient id="SVGID_5_" gradientUnits="userSpaceOnUse" x1="34.0944" y1="19.4264" x2="45.7668" y2="19.4264">
				<stop  offset="0" style="stop-color:#FD1572"/>
				<stop  offset="0.1231" style="stop-color:#FD1B73"/>
				<stop  offset="0.2826" style="stop-color:#FD2B74"/>
				<stop  offset="0.4621" style="stop-color:#FD4676"/>
				<stop  offset="0.6563" style="stop-color:#FC6B7A"/>
				<stop  offset="0.86" style="stop-color:#FC9A7E"/>
				<stop  offset="1" style="stop-color:#FCBF81"/>
			</linearGradient>
			<path class="st4" d="M36.7,37.9l-2.1-2.1c-0.6-0.6-0.6-1.4-0.1-2c3.5-4,5.4-9,5.4-14.4c0-5.3-1.9-10.4-5.4-14.4
				c-0.5-0.6-0.5-1.5,0.1-2l2.1-2.1c0.6-0.6,1.6-0.6,2.1,0.1c4.5,5.1,7,11.6,7,18.4c0,6.8-2.5,13.3-7,18.4
				C38.2,38.5,37.3,38.5,36.7,37.9z"/>
		</g>
		<g>
			<linearGradient id="SVGID_6_" gradientUnits="userSpaceOnUse" x1="34.6866" y1="19.4264" x2="46.3591" y2="19.4264">
				<stop  offset="0" style="stop-color:#FF7A59"/>
				<stop  offset="0.3017" style="stop-color:#FF805D"/>
				<stop  offset="0.7115" style="stop-color:#FE9268"/>
				<stop  offset="1" style="stop-color:#FDA272"/>
			</linearGradient>
			<path class="st5" d="M37.2,37.9l-2.1-2.1c-0.6-0.6-0.6-1.4-0.1-2c3.5-4,5.4-9,5.4-14.4c0-5.3-1.9-10.4-5.4-14.4
				c-0.5-0.6-0.5-1.5,0.1-2l2.1-2.1c0.6-0.6,1.6-0.6,2.1,0.1c4.5,5.1,7,11.6,7,18.4c0,6.8-2.5,13.3-7,18.4
				C38.8,38.5,37.8,38.5,37.2,37.9z"/>
		</g>
	</g>
	<g>
		<path class="st6" d="M62.1,25.2c-1.1,1-2.6,1.5-4.2,1.5c-1.2,0-2.5-0.3-3.4-0.9c-2.1-1.2-3.5-3.5-3.5-6.2s1.5-5,3.5-6.3
			c0.9-0.6,2.1-0.9,3.3-0.9c1.5,0,3,0.5,4.3,1.5v-1.3h2.7v13.7h-2.7V25.2z M62,17.1c-0.8-1.1-2.2-2-3.9-2c-2.7,0-4.4,2.1-4.4,4.5
			c0,2.4,1.9,4.5,4.5,4.5c1.4,0,2.8-0.7,3.8-2V17.1z"/>
		<path class="st6" d="M69.7,5.8h2.8v20.7h-2.8V5.8z"/>
		<path class="st6" d="M78.9,20.2c0.1,2.3,2,4.1,4.4,4.1c2,0,3.1-1,3.9-1.9l1.8,1.7c-1,1.3-3,2.6-5.8,2.6c-4,0-7.1-3-7.1-7.1
			s2.8-7.1,6.7-7.1c3.8,0,6.6,3.1,6.6,7.1c0,0.1,0,0.3,0,0.6H78.9z M79.2,17.9h7.5c-0.4-1.7-2-3-3.6-3
			C81.2,14.9,79.6,16.1,79.2,17.9z"/>
		<path class="st6" d="M100.8,15.2c-0.3-0.1-0.6-0.1-1.1-0.1c-1.4,0-2.9,1-3.7,2.3v9.1h-2.8V12.8H96v1.6c0.7-0.9,2.1-1.9,4.1-1.9
			c0.3,0,0.8,0,1.1,0.1L100.8,15.2z"/>
		<path class="st6" d="M113.8,26.5c-0.5,0.2-1.4,0.3-2.2,0.3c-1.7,0-3-0.6-3.9-1.6c-0.8-0.9-1.1-2.2-1.1-3.6v-6.3h-3.5v-2.5h3.5V9
			h2.8v3.8h4.4v2.5h-4.4v6.4c0,0.7,0.1,1.3,0.4,1.7c0.4,0.5,1.2,0.7,1.9,0.7c0.4,0,1.1-0.1,1.5-0.2L113.8,26.5z"/>
		<path class="st6" d="M119,6.1c1,0,1.8,0.8,1.8,1.8c0,1-0.8,1.8-1.8,1.8c-1,0-1.8-0.8-1.8-1.8C117.2,6.9,118,6.1,119,6.1z
			 M117.6,12.8h2.8v13.7h-2.8V12.8z"/>
	</g>
</g>
</svg>
