<?xml version="1.0" encoding="UTF-8"?>
<svg width="90px" height="90px" viewBox="0 0 90 90" version="1.1" xmlns="http://www.w3.org/2000/svg" xmlns:xlink="http://www.w3.org/1999/xlink">
    <title>Group</title>
    <defs>
        <linearGradient x1="9.86767219%" y1="9.40465527%" x2="125.90017%" y2="123.568778%" id="linearGradient-1">
            <stop stop-color="#6C1FD2" offset="0%"></stop>
            <stop stop-color="#FA1717" offset="61.123085%"></stop>
            <stop stop-color="#FF0000" offset="100%"></stop>
        </linearGradient>
    </defs>
    <g id="Logo-Alerti" stroke="none" stroke-width="1" fill="none" fill-rule="evenodd">
        <g id="Artboard-Copy-2" transform="translate(-212.000000, -228.000000)">
            <g id="Group" transform="translate(212.000000, 228.000000)">
                <circle id="Oval" fill="url(#linearGradient-1)" cx="45" cy="45" r="45"></circle>
                <g id="Group-Copy" transform="translate(17.000000, 20.000000)" fill="#FFFFFF" fill-rule="nonzero">
                    <g id="alerti-brand">
                        <path d="M21.2390587,32.6293209 C17.3218439,32.6293209 14.147964,29.455441 14.147964,25.5409 C14.147964,21.6263591 17.3218439,18.4524791 21.2390587,18.4524791 C25.1535996,18.4524791 28.3274796,21.6263591 28.3274796,25.5409 C28.3274796,29.455441 25.1535996,32.6293209 21.2390587,32.6293209 Z" id="Fill-1"></path>
                        <path d="M42.9813395,47.2853189 C48.7863044,41.4776803 51.9869229,33.755553 51.9869229,25.5414343 C51.9869229,17.3273154 48.7863044,9.60518805 42.9786657,3.79754937 L46.2808912,0.497997741 C52.968232,7.18801247 56.6528205,16.0812934 56.6528205,25.5414343 C56.6528205,35.001575 52.9709059,43.8948558 46.2808912,50.5848707 L42.9813395,47.2853189 Z" id="Fill-6-Copy" stroke="#FFFFFF" stroke-width="1.17525773" stroke-linecap="round" stroke-linejoin="round"></path>
                        <path d="M-0.00026738668,25.5417022 C-0.00026738668,19.8677568 2.20834658,14.5333926 6.21914679,10.5225924 L9.52137228,13.8248179 C6.39294813,16.953242 4.66830405,21.1137788 4.66830405,25.5417022 C4.66830405,34.6783051 12.1016537,42.1116546 21.2382566,42.1116546 C30.3748595,42.1116546 37.808209,34.6783051 37.808209,25.5417022 C37.808209,21.1137788 36.0835651,16.953242 32.9551409,13.8248179 L36.2546924,10.5225924 C40.2681667,14.5333926 42.4767807,19.8677568 42.4767807,25.5417022 C42.4767807,37.2532388 32.9497933,46.7802262 21.2382566,46.7802262 C9.52672001,46.7802262 -0.00026738668,37.2532388 -0.00026738668,25.5417022 Z" id="Fill-3" stroke="#FFFFFF" stroke-width="1.17525773" stroke-linejoin="round"></path>
                    </g>
                </g>
            </g>
        </g>
    </g>
</svg>