<?xml version="1.0" encoding="UTF-8"?>
<svg width="285px" height="89px" viewBox="0 0 285 89" version="1.1" xmlns="http://www.w3.org/2000/svg" xmlns:xlink="http://www.w3.org/1999/xlink">
    <title>Group Copy 3</title>
    <defs>
        <linearGradient x1="-42.3702313%" y1="-46.2167703%" x2="210.420484%" y2="141.322942%" id="linearGradient-1">
            <stop stop-color="#6C1FD2" offset="0%"></stop>
            <stop stop-color="#FA2355" offset="48.0890966%"></stop>
            <stop stop-color="#FFCA5F" offset="100%"></stop>
        </linearGradient>
        <linearGradient x1="43.1152975%" y1="-46.253067%" x2="61.9567451%" y2="141.357392%" id="linearGradient-2">
            <stop stop-color="#6C1FD2" offset="0%"></stop>
            <stop stop-color="#FA2355" offset="48.0890966%"></stop>
            <stop stop-color="#FFCA5F" offset="100%"></stop>
        </linearGradient>
        <linearGradient x1="-42.3702313%" y1="-20.1301616%" x2="210.420484%" y2="116.563164%" id="linearGradient-3">
            <stop stop-color="#6C1FD2" offset="0%"></stop>
            <stop stop-color="#FA2355" offset="48.0890966%"></stop>
            <stop stop-color="#FFCA5F" offset="100%"></stop>
        </linearGradient>
        <linearGradient x1="-42.3702313%" y1="-46.253067%" x2="224.421221%" y2="167.11503%" id="linearGradient-4">
            <stop stop-color="#6C1FD2" offset="0%"></stop>
            <stop stop-color="#FA2355" offset="48.0890966%"></stop>
            <stop stop-color="#FFCA5F" offset="100%"></stop>
        </linearGradient>
    </defs>
    <g id="Logo-Alerti" stroke="none" stroke-width="1" fill="none" fill-rule="evenodd">
        <g id="Artboard-Copy" transform="translate(-342.000000, -540.000000)">
            <g id="Group-Copy-3" transform="translate(343.000000, 541.000000)">
                <g id="Group-Copy" fill-rule="nonzero">
                    <g id="alerti-brand">
                        <path d="M36.1436614,55.52709 C29.4775238,55.52709 24.0763598,50.1259259 24.0763598,43.4643385 C24.0763598,36.8027515 29.4775238,31.4015873 36.1436614,31.4015873 C42.8052485,31.4015873 48.2064126,36.8027515 48.2064126,43.4643385 C48.2064126,50.1259259 42.8052485,55.52709 36.1436614,55.52709 Z" id="Fill-1" fill="url(#linearGradient-1)"></path>
                        <path d="M73.1436831,80.4679989 C83.0223074,70.5848244 88.4689741,57.4436604 88.4689741,43.4652478 C88.4689741,29.4868349 83.0223074,16.3456709 73.1391328,6.4624963 L78.7587095,0.847469841 C90.1389211,12.2322317 96.4091857,27.3664116 96.4091857,43.4652478 C96.4091857,59.5640837 90.1434714,74.6982633 78.7587095,86.0830256 L73.1436831,80.4679989 Z" id="Fill-6-Copy" stroke="url(#linearGradient-2)" stroke-width="2" fill="url(#linearGradient-2)" stroke-linecap="round" stroke-linejoin="round"></path>
                        <path d="M-0.000455026456,43.4657037 C-0.000455026456,33.8100423 3.75806348,24.7322646 10.5834603,17.9068677 L16.203037,23.5264444 C10.8792275,28.850254 7.94430689,35.9304656 7.94430689,43.4657037 C7.94430689,59.0139578 20.5940423,71.663693 36.1422963,71.663693 C51.6905504,71.663693 64.3402856,59.0139578 64.3402856,43.4657037 C64.3402856,35.9304656 61.4053652,28.850254 56.0815556,23.5264444 L61.6965819,17.9068677 C68.5265293,24.7322646 72.2850478,33.8100423 72.2850478,43.4657037 C72.2850478,63.3958626 56.0724552,79.6084552 36.1422963,79.6084552 C16.2121376,79.6084552 -0.000455026456,63.3958626 -0.000455026456,43.4657037 Z" id="Fill-3" stroke="url(#linearGradient-3)" stroke-width="2" fill="url(#linearGradient-3)" stroke-linejoin="round"></path>
                    </g>
                </g>
                <path d="M134.148,65.022 C139.258,65.022 143.224333,63.2456667 146.047,59.693 L146.047,59.693 L146.047,64 L155.464,64 L155.464,27.5 L146.047,27.5 L146.047,31.807 C143.224333,28.2543333 139.258,26.478 134.148,26.478 C129.281333,26.478 125.108167,28.3395 121.6285,32.0625 C118.148833,35.7855 116.409,40.348 116.409,45.75 C116.409,51.152 118.148833,55.7145 121.6285,59.4375 C125.108167,63.1605 129.281333,65.022 134.148,65.022 Z M135.9,56.043 C132.98,56.043 130.571,55.094 128.673,53.196 C126.775,51.2493333 125.826,48.7673333 125.826,45.75 C125.826,42.7326667 126.775,40.2628333 128.673,38.3405 C130.571,36.4181667 132.98,35.457 135.9,35.457 C138.82,35.457 141.241167,36.4181667 143.1635,38.3405 C145.085833,40.2628333 146.047,42.7326667 146.047,45.75 C146.047,48.7673333 145.085833,51.2371667 143.1635,53.1595 C141.241167,55.0818333 138.82,56.043 135.9,56.043 Z M172.422,64 L172.422,10.71 L163.005,10.71 L163.005,64 L172.422,64 Z M198.14,65.022 C205.148,65.022 210.452667,62.4183333 214.054,57.211 L214.054,57.211 L206.462,52.831 C204.612667,55.2643333 201.887333,56.481 198.286,56.481 C192.689333,56.481 189.258333,54.1936667 187.993,49.619 L187.993,49.619 L215.514,49.619 C215.757333,48.2563333 215.879,46.9666667 215.879,45.75 C215.879,40.2993333 214.139167,35.7246667 210.6595,32.026 C207.179833,28.3273333 202.763333,26.478 197.41,26.478 C191.764667,26.478 187.141333,28.3151667 183.54,31.9895 C179.938667,35.6638333 178.138,40.2506667 178.138,45.75 C178.138,51.298 179.963,55.897 183.613,59.547 C187.263,63.197 192.105333,65.022 198.14,65.022 Z M206.462,42.319 L187.847,42.319 C188.382333,39.983 189.477333,38.1701667 191.132,36.8805 C192.786667,35.5908333 194.879333,34.946 197.41,34.946 C199.551333,34.946 201.4615,35.5543333 203.1405,36.771 C204.8195,37.9876667 205.926667,39.837 206.462,42.319 L206.462,42.319 Z M230.866,64 L230.866,46.553 C230.866,43.049 231.9975,40.5426667 234.2605,39.034 C236.5235,37.5253333 239.090667,36.9413333 241.962,37.282 L241.962,37.282 L241.962,26.77 C239.48,26.77 237.229167,27.354 235.2095,28.522 C233.189833,29.69 231.742,31.442 230.866,33.778 L230.866,33.778 L230.866,27.5 L221.449,27.5 L221.449,64 L230.866,64 Z M254.6495,62.175 C257.301833,64.1216667 261.864333,64.73 268.337,64 L268.337,64 L268.337,55.459 C266.536333,55.5563333 265.027667,55.5685 263.811,55.4955 C262.594333,55.4225 261.669667,55.094 261.037,54.51 C260.404333,53.926 260.088,53.0013333 260.088,51.736 L260.088,51.736 L260.088,36.552 L268.337,36.552 L268.337,27.5 L260.088,27.5 L260.088,17.28 L250.671,20.127 L250.671,27.5 L244.32,27.5 L244.32,36.552 L250.671,36.552 L250.671,51.736 C250.671,56.7486667 251.997167,60.2283333 254.6495,62.175 Z M283.397,64 L283.397,27.5 L273.98,27.5 L273.98,64 L283.397,64 Z" id="alerti" fill="#FFFFFF" fill-rule="nonzero"></path>
                <polygon id="Path-2" fill="url(#linearGradient-4)" points="273.9365 14.8194586 283.9365 12.7085098 283.9365 20.6741272 273.9365 22.7085098"></polygon>
            </g>
        </g>
    </g>
</svg>