<?xml version="1.0" encoding="UTF-8"?>
<svg width="86px" height="24px" viewBox="0 0 86 24" version="1.1" xmlns="http://www.w3.org/2000/svg" xmlns:xlink="http://www.w3.org/1999/xlink">
    <!-- Generator: Sketch 60.1 (88133) - https://sketch.com -->
    <title>Brand</title>
    <desc>Created with Sketch.</desc>
    <defs>
        <polygon id="path-1" points="0 0.0212542857 19.5169629 0.0212542857 19.5169629 16.6806829 0 16.6806829"></polygon>
        <polygon id="path-3" points="0.0904228571 0.329502857 6.37333714 0.329502857 6.37333714 23.3428571 0.0904228571 23.3428571"></polygon>
        <polygon id="path-5" points="0 24.2421714 86 24.2421714 86 1.22857143 0 1.22857143"></polygon>
    </defs>
    <g id="Page-1" stroke="none" stroke-width="1" fill="none" fill-rule="evenodd">
        <g id="Brand" transform="translate(0.000000, -1.000000)">
            <path d="M13.0157314,12.7353714 C13.0157314,14.534 11.5574171,15.9923143 9.75878857,15.9923143 C7.95893143,15.9923143 6.50061714,14.534 6.50061714,12.7353714 C6.50061714,10.9367429 7.95893143,9.47842857 9.75878857,9.47842857 C11.5574171,9.47842857 13.0157314,10.9367429 13.0157314,12.7353714" id="Fill-1" fill="#FF7A59"></path>
            <g id="Group-5" transform="translate(0.000000, 5.813600)">
                <mask id="mask-2" fill="white">
                    <use xlink:href="#path-1"></use>
                </mask>
                <g id="Clip-4"></g>
                <path d="M9.75842,16.6806829 C4.37727714,16.6806829 -0.000122857143,12.3032829 -0.000122857143,6.92214 C-0.000122857143,4.31511143 1.01467714,1.86411143 2.85753429,0.0212542857 L4.37482,1.53854 C2.93739143,2.97596857 2.14496286,4.88762571 2.14496286,6.92214 C2.14496286,11.1201686 5.56039143,14.5355971 9.75842,14.5355971 C13.9564486,14.5355971 17.3718771,11.1201686 17.3718771,6.92214 C17.3718771,4.88762571 16.5794486,2.97596857 15.14202,1.53854 L16.6580771,0.0212542857 C18.5021629,1.86411143 19.5169629,4.31511143 19.5169629,6.92214 C19.5169629,12.3032829 15.1395629,16.6806829 9.75842,16.6806829" id="Fill-3" fill="#FF7A59" mask="url(#mask-2)"></path>
            </g>
            <g id="Group-8" transform="translate(19.657143, 0.899314)">
                <mask id="mask-4" fill="white">
                    <use xlink:href="#path-3"></use>
                </mask>
                <g id="Clip-7"></g>
                <path d="M1.60770857,23.3431029 L0.0916514286,21.8270457 C2.75888,19.1585886 4.22948,15.6104743 4.22948,11.8363029 C4.22948,8.06213143 2.75888,4.51401714 0.0904228571,1.84556 L1.60770857,0.329502857 C4.68036571,3.40338857 6.37333714,7.48961714 6.37333714,11.8363029 C6.37333714,16.1829886 4.68159429,20.2692171 1.60770857,23.3431029" id="Fill-6" fill="#FF7A59" mask="url(#mask-4)"></path>
            </g>
            <path d="M39.1091143,10.5961829 C38.4432286,9.72266857 37.3399714,9.05678286 36.0290857,9.05678286 C33.9380571,9.05678286 32.5596,10.7337829 32.5596,12.6184114 C32.5596,14.5484971 34.0535429,16.18004 36.1445714,16.18004 C37.2478286,16.18004 38.3732,15.62964 39.1091143,14.64064 L39.1091143,10.5961829 Z M39.1779143,17.0302114 C38.3044,17.8115829 37.1323429,18.2489543 35.8460286,18.2489543 C34.8803714,18.2489543 33.8692571,17.9725257 33.1345714,17.5351543 C31.5030286,16.5707257 30.3764286,14.77824 30.3764286,12.6184114 C30.3764286,10.4585829 31.5251429,8.64275429 33.1566857,7.67832571 C33.8926,7.24095429 34.7882286,6.98786857 35.7993429,6.98786857 C37.0180857,6.98786857 38.1889143,7.35521143 39.1779143,8.20661143 L39.1779143,7.21761143 L41.2922857,7.21761143 L41.2922857,18.0192114 L39.1779143,18.0192114 L39.1779143,17.0302114 Z" id="Fill-9" fill="#1E242F"></path>
            <mask id="mask-6" fill="white">
                <use xlink:href="#path-5"></use>
            </mask>
            <g id="Clip-12"></g>
            <polygon id="Fill-11" fill="#1E242F" mask="url(#mask-6)" points="44.5062286 18.0194571 46.6894 18.0194571 46.6894 2.752 44.5062286 2.752"></polygon>
            <path d="M52.2059314,11.2392171 L58.0883314,11.2392171 C57.7664457,9.86076 56.5268171,8.89510286 55.2392743,8.89510286 C53.8374743,8.89510286 52.5732743,9.83741714 52.2059314,11.2392171 L52.2059314,11.2392171 Z M52.0228743,13.0783886 C52.1371314,14.8942171 53.6310743,16.3402457 55.5144743,16.3402457 C57.1239029,16.3402457 57.9974171,15.5601029 58.6178457,14.8708743 L60.0429886,16.2272171 C59.2382743,17.2604457 57.6988743,18.2482171 55.49236,18.2482171 C52.3435314,18.2482171 49.9072743,15.8586457 49.9072743,12.6189029 C49.9072743,9.37793143 52.1137886,6.98836 55.1704743,6.98836 C58.1804743,6.98836 60.3648743,9.42338857 60.3648743,12.6189029 C60.3648743,12.7098171 60.3648743,12.87076 60.3403029,13.0783886 L52.0228743,13.0783886 Z" id="Fill-13" fill="#1E242F" mask="url(#mask-6)"></path>
            <path d="M69.5306314,9.14806571 C69.2775457,9.07926571 69.02446,9.05592286 68.68046,9.05592286 C67.5550886,9.05592286 66.3596886,9.83852286 65.7626029,10.8717514 L65.7626029,18.01958 L63.5782029,18.01958 L63.5782029,7.21798 L65.6925743,7.21798 L65.6925743,8.45883714 C66.2220886,7.72292286 67.34746,6.98823714 68.9335457,6.98823714 C69.16206,6.98823714 69.5306314,7.01158 69.7837171,7.05703714 L69.5306314,9.14806571 Z" id="Fill-14" fill="#1E242F" mask="url(#mask-6)"></path>
            <path d="M80.3130657,18.0192114 C79.8990371,18.1568114 79.2331514,18.2489543 78.6127229,18.2489543 C77.2576086,18.2489543 76.2452657,17.7661257 75.5560371,16.9847543 C74.9122657,16.2721829 74.6825229,15.2831829 74.6825229,14.1123543 L74.6825229,9.17104 L71.9256086,9.17104 L71.9256086,7.21761143 L74.6825229,7.21761143 L74.6825229,4.22972571 L76.8656943,4.22972571 L76.8656943,7.21761143 L80.3130657,7.21761143 L80.3130657,9.17104 L76.8656943,9.17104 L76.8656943,14.2266114 C76.8656943,14.8015829 76.9111514,15.2831829 77.18758,15.6050686 C77.4861229,15.97364 78.1065514,16.18004 78.6815229,16.18004 C79.0034086,16.18004 79.5550371,16.1345829 79.8769229,16.04244 L80.3130657,18.0192114 Z" id="Fill-15" fill="#1E242F" mask="url(#mask-6)"></path>
            <path d="M83.5305714,18.0194571 L85.7137429,18.0194571 L85.7137429,7.21785714 L83.5305714,7.21785714 L83.5305714,18.0194571 Z M84.6117143,2.84537143 C85.3832571,2.84537143 86,3.46211429 86,4.23365714 C86,5.00397143 85.3832571,5.5986 84.6117143,5.5986 C83.8401714,5.5986 83.2455429,5.00397143 83.2455429,4.23365714 C83.2455429,3.46211429 83.8401714,2.84537143 84.6117143,2.84537143 L84.6117143,2.84537143 Z" id="Fill-16" fill="#1E242F" mask="url(#mask-6)"></path>
        </g>
    </g>
</svg>